<?xml version="1.0" standalone="no"?><!DOCTYPE svg PUBLIC "-//W3C//DTD SVG 1.1//EN" "http://www.w3.org/Graphics/SVG/1.1/DTD/svg11.dtd"><svg t="1735048281864" class="icon" viewBox="0 0 1044 1024" version="1.1" xmlns="http://www.w3.org/2000/svg" p-id="4459" xmlns:xlink="http://www.w3.org/1999/xlink" width="203.90625" height="200"><path d="M915.648286 188.95651H662.318927a48.557106 48.557106 0 0 1-48.557106-48.418372v-12.208643h31.076548v12.208643a17.480558 17.480558 0 0 0 17.480558 17.480559H915.648286z" fill="#484F59" p-id="4460"></path><path d="M971.142122 277.469178h-100.998781v-31.492752H971.142122a28.579325 28.579325 0 0 0 0-57.019916h-77.69137v-30.937813H971.142122A59.517139 59.517139 0 1 1 971.142122 277.469178z" fill="#484F59" p-id="4461"></path><path d="M859.183308 387.208237a70.615906 70.615906 0 1 1 0-141.231811h43.978865V277.469178h-43.978865a39.539358 39.539358 0 0 0 0 79.078715z" fill="#484F59" p-id="4462"></path><path d="M936.597209 620.559816h-30.937813V433.961794a47.031026 47.031026 0 0 0-46.892291-46.892291v-30.937814a77.830104 77.830104 0 0 1 77.830104 77.830105z" fill="#484F59" p-id="4463"></path><path d="M382.491261 532.185883V84.35063a69.367294 69.367294 0 0 0-69.367294-69.367294H57.43612l-41.620377 58.129792v459.072755z" fill="#FFFFFF" p-id="4464"></path><path d="M398.029535 547.585422H0V69.367294l49.528248-69.367294h263.595719a84.489365 84.489365 0 0 1 84.35063 84.35063zM31.076548 516.647609h335.876439V84.35063a53.274082 53.274082 0 0 0-53.274082-53.274082H65.482726L31.076548 78.801246z" fill="#484F59" p-id="4465"></path><path d="M111.820079 78.107573h122.918845v31.076548H111.820079zM111.820079 146.64246h206.992006v31.076548H111.820079zM111.820079 194.505894h206.992006v31.076547H111.820079zM111.820079 242.369327h206.992006v31.076548H111.820079zM111.820079 290.23276h206.992006v31.076548H111.820079zM111.820079 338.096193h206.992006v31.076548H111.820079zM111.820079 385.959626h206.992006v31.076548H111.820079z" fill="#484F59" p-id="4466"></path><path d="M382.491261 532.185883V84.35063a69.367294 69.367294 0 0 1 69.367295-69.367294h254.439236L749.16678 73.668067v458.517816z" fill="#FFFFFF" p-id="4467"></path><path d="M765.121257 547.585422H367.091722V84.35063A84.35063 84.35063 0 0 1 451.442352 0h262.624577l51.054328 68.534887z m-367.091722-30.937813h336.015174V78.801246l-35.516054-47.724698H451.442352a53.412817 53.412817 0 0 0-53.412817 53.274082z" fill="#484F59" p-id="4468"></path><path d="M398.029535 537.596532h-31.076548a53.412817 53.412817 0 0 0-53.274082-53.274082H57.158651v-30.937814h256.520254a84.35063 84.35063 0 0 1 84.35063 84.211896z" fill="#484F59" p-id="4469"></path><path d="M398.029535 537.596532h-30.937813a84.35063 84.35063 0 0 1 84.35063-84.211896H707.546403v30.937814H451.442352a53.551551 53.551551 0 0 0-53.412817 53.274082zM43.701395 15.399539h31.076548v462.957323H43.701395z" fill="#484F59" p-id="4470"></path><path d="M689.649641 15.399539h31.076548v462.957323h-31.076548zM444.644357 290.23276h206.992007v31.076548H444.644357zM444.644357 338.096193h206.992007v31.076548H444.644357zM444.644357 385.959626h206.992007v31.076548H444.644357z" fill="#484F59" p-id="4471"></path><path d="M457.13047 93.090909h184.378269V259.433681H457.13047z" fill="#D5E962" p-id="4472"></path><path d="M656.908278 274.971955H441.592196V77.552635h215.316082z m-184.378269-31.076548h153.440456V108.490448H472.530009zM0.610432 519.630402l47.863433-56.187508 23.654248 20.144262-47.84956 56.187509zM692.45208 483.670397l23.654247-20.158136 47.863433 56.187509-23.668121 20.158135z" fill="#484F59" p-id="4473"></path><path d="M153.856659 613.484352m14.150928 0l846.558461 0q14.150928 0 14.150928 14.150928l0 366.814253q0 14.150928-14.150928 14.150928l-846.558461 0q-14.150928 0-14.150928-14.150928l0-366.814253q0-14.150928 14.150928-14.150928Z" fill="#E5E8EC" p-id="4474"></path><path d="M1014.566048 1024h-846.280992A29.550467 29.550467 0 0 1 138.734589 994.449533V627.496545a29.689202 29.689202 0 0 1 29.134263-29.550467h846.280992a29.689202 29.689202 0 0 1 29.689202 29.550467v366.952988a29.550467 29.550467 0 0 1-29.272998 29.550467zM169.256198 993.062187H1012.762498V629.022626H169.256198z" fill="#484F59" p-id="4475"></path><path d="M198.390462 682.712912z" fill="#FFFFFF" p-id="4476"></path><path d="M198.390462 667.174638h56.048774v31.076547H198.390462z" fill="#484F59" p-id="4477"></path><path d="M279.272727 682.712912z" fill="#FFFFFF" p-id="4478"></path><path d="M279.272727 667.174638h56.048774v31.076547h-56.048774z" fill="#484F59" p-id="4479"></path><path d="M360.709931 682.712912z" fill="#FFFFFF" p-id="4480"></path><path d="M360.293727 667.174638h56.048774v31.076547h-56.048774z" fill="#484F59" p-id="4481"></path><path d="M441.314727 682.712912z" fill="#FFFFFF" p-id="4482"></path><path d="M441.314727 667.174638h56.048774v31.076547h-56.048774z" fill="#484F59" p-id="4483"></path><path d="M522.335727 682.712912z" fill="#FFFFFF" p-id="4484"></path><path d="M522.335727 667.174638h56.048774v31.076547h-56.048774z" fill="#484F59" p-id="4485"></path><path d="M603.217992 682.712912z" fill="#FFFFFF" p-id="4486"></path><path d="M603.217992 667.174638h56.048774v31.076547h-56.048774z" fill="#484F59" p-id="4487"></path><path d="M684.238992 682.712912z" fill="#FFFFFF" p-id="4488"></path><path d="M684.238992 667.174638h55.910039v31.076547h-55.910039z" fill="#484F59" p-id="4489"></path><path d="M765.259992 682.712912z" fill="#FFFFFF" p-id="4490"></path><path d="M765.259992 667.174638h56.048774v31.076547h-56.048774z" fill="#484F59" p-id="4491"></path><path d="M846.280992 682.712912z" fill="#FFFFFF" p-id="4492"></path><path d="M846.280992 667.174638h56.048774v31.076547H846.280992z" fill="#484F59" p-id="4493"></path><path d="M927.163257 682.712912z" fill="#FFFFFF" p-id="4494"></path><path d="M927.163257 667.174638h56.048774v31.076547h-56.048774z" fill="#484F59" p-id="4495"></path><path d="M198.390462 747.918168z" fill="#FFFFFF" p-id="4496"></path><path d="M198.390462 732.379894h56.048774v31.076548H198.390462z" fill="#484F59" p-id="4497"></path><path d="M279.272727 747.918168z" fill="#FFFFFF" p-id="4498"></path><path d="M279.272727 732.379894h56.048774v31.076548h-56.048774z" fill="#484F59" p-id="4499"></path><path d="M360.709931 747.918168z" fill="#FFFFFF" p-id="4500"></path><path d="M360.293727 732.379894h56.048774v31.076548h-56.048774z" fill="#484F59" p-id="4501"></path><path d="M441.314727 747.918168z" fill="#FFFFFF" p-id="4502"></path><path d="M441.314727 732.379894h56.048774v31.076548h-56.048774z" fill="#484F59" p-id="4503"></path><path d="M522.335727 747.918168z" fill="#FFFFFF" p-id="4504"></path><path d="M522.335727 732.379894h56.048774v31.076548h-56.048774z" fill="#484F59" p-id="4505"></path><path d="M603.217992 747.918168z" fill="#FFFFFF" p-id="4506"></path><path d="M603.217992 732.379894h56.048774v31.076548h-56.048774z" fill="#484F59" p-id="4507"></path><path d="M684.238992 747.918168z" fill="#FFFFFF" p-id="4508"></path><path d="M684.238992 732.379894h55.910039v31.076548h-55.910039z" fill="#484F59" p-id="4509"></path><path d="M765.259992 747.918168z" fill="#FFFFFF" p-id="4510"></path><path d="M765.259992 732.379894h56.048774v31.076548h-56.048774z" fill="#484F59" p-id="4511"></path><path d="M846.280992 747.918168z" fill="#FFFFFF" p-id="4512"></path><path d="M846.280992 732.379894h56.048774v31.076548H846.280992z" fill="#484F59" p-id="4513"></path><path d="M927.163257 747.918168z" fill="#FFFFFF" p-id="4514"></path><path d="M927.163257 732.379894h56.048774v31.076548h-56.048774z" fill="#484F59" p-id="4515"></path><path d="M198.390462 813.123425z" fill="#FFFFFF" p-id="4516"></path><path d="M198.390462 797.585151h56.048774v31.076548H198.390462z" fill="#484F59" p-id="4517"></path><path d="M279.272727 813.123425z" fill="#FFFFFF" p-id="4518"></path><path d="M279.272727 797.585151h56.048774v31.076548h-56.048774z" fill="#484F59" p-id="4519"></path><path d="M360.709931 813.123425z" fill="#FFFFFF" p-id="4520"></path><path d="M360.293727 797.585151h56.048774v31.076548h-56.048774z" fill="#484F59" p-id="4521"></path><path d="M441.314727 813.123425z" fill="#FFFFFF" p-id="4522"></path><path d="M441.314727 797.585151h56.048774v31.076548h-56.048774z" fill="#484F59" p-id="4523"></path><path d="M522.335727 813.123425z" fill="#FFFFFF" p-id="4524"></path><path d="M522.335727 797.585151h56.048774v31.076548h-56.048774z" fill="#484F59" p-id="4525"></path><path d="M603.217992 813.123425z" fill="#FFFFFF" p-id="4526"></path><path d="M603.217992 797.585151h56.048774v31.076548h-56.048774z" fill="#484F59" p-id="4527"></path><path d="M684.238992 813.123425z" fill="#FFFFFF" p-id="4528"></path><path d="M684.238992 797.585151h55.910039v31.076548h-55.910039z" fill="#484F59" p-id="4529"></path><path d="M765.259992 813.123425z" fill="#FFFFFF" p-id="4530"></path><path d="M765.259992 797.585151h56.048774v31.076548h-56.048774z" fill="#484F59" p-id="4531"></path><path d="M846.280992 813.123425z" fill="#FFFFFF" p-id="4532"></path><path d="M846.280992 797.585151h56.048774v31.076548H846.280992z" fill="#484F59" p-id="4533"></path><path d="M927.163257 813.123425z" fill="#FFFFFF" p-id="4534"></path><path d="M927.163257 797.585151h56.048774v31.076548h-56.048774z" fill="#484F59" p-id="4535"></path><path d="M198.390462 878.328682z" fill="#FFFFFF" p-id="4536"></path><path d="M198.390462 862.929142h56.048774v31.076548H198.390462z" fill="#484F59" p-id="4537"></path><path d="M279.272727 878.328682z" fill="#FFFFFF" p-id="4538"></path><path d="M279.272727 862.929142h56.048774v31.076548h-56.048774z" fill="#484F59" p-id="4539"></path><path d="M360.709931 878.328682z" fill="#FFFFFF" p-id="4540"></path><path d="M360.293727 862.929142h56.048774v31.076548h-56.048774z" fill="#484F59" p-id="4541"></path><path d="M441.314727 878.328682z" fill="#FFFFFF" p-id="4542"></path><path d="M441.314727 862.929142h56.048774v31.076548h-56.048774z" fill="#484F59" p-id="4543"></path><path d="M522.335727 878.328682z" fill="#FFFFFF" p-id="4544"></path><path d="M522.335727 862.929142h56.048774v31.076548h-56.048774z" fill="#484F59" p-id="4545"></path><path d="M603.217992 878.328682z" fill="#FFFFFF" p-id="4546"></path><path d="M603.217992 862.929142h56.048774v31.076548h-56.048774z" fill="#484F59" p-id="4547"></path><path d="M684.238992 878.328682z" fill="#FFFFFF" p-id="4548"></path><path d="M684.238992 862.929142h55.910039v31.076548h-55.910039z" fill="#484F59" p-id="4549"></path><path d="M765.259992 878.328682z" fill="#FFFFFF" p-id="4550"></path><path d="M765.259992 862.929142h56.048774v31.076548h-56.048774z" fill="#484F59" p-id="4551"></path><path d="M846.280992 878.328682z" fill="#FFFFFF" p-id="4552"></path><path d="M846.280992 862.929142h56.048774v31.076548H846.280992z" fill="#484F59" p-id="4553"></path><path d="M927.163257 878.328682z" fill="#FFFFFF" p-id="4554"></path><path d="M927.163257 862.929142h56.048774v31.076548h-56.048774z" fill="#484F59" p-id="4555"></path><path d="M198.390462 943.395204z" fill="#FFFFFF" p-id="4556"></path><path d="M198.390462 928.134399h56.048774v31.076548H198.390462z" fill="#484F59" p-id="4557"></path><path d="M279.272727 943.395204z" fill="#FFFFFF" p-id="4558"></path><path d="M279.272727 928.134399h56.048774v31.076548h-56.048774z" fill="#484F59" p-id="4559"></path><path d="M360.709931 943.395204z" fill="#FFFFFF" p-id="4560"></path><path d="M360.293727 928.134399h56.048774v31.076548h-56.048774z" fill="#484F59" p-id="4561"></path><path d="M441.314727 943.395204z" fill="#FFFFFF" p-id="4562"></path><path d="M441.314727 928.134399h299.666712v31.076548h-299.666712z" fill="#484F59" p-id="4563"></path><path d="M765.259992 943.395204z" fill="#FFFFFF" p-id="4564"></path><path d="M765.259992 928.134399h56.048774v31.076548h-56.048774z" fill="#484F59" p-id="4565"></path><path d="M846.280992 943.395204z" fill="#FFFFFF" p-id="4566"></path><path d="M846.280992 928.134399h56.048774v31.076548H846.280992z" fill="#484F59" p-id="4567"></path><path d="M927.163257 943.395204z" fill="#FFFFFF" p-id="4568"></path><path d="M927.163257 928.134399h56.048774v31.076548h-56.048774z" fill="#484F59" p-id="4569"></path></svg>