<?xml version="1.0" standalone="no"?><!DOCTYPE svg PUBLIC "-//W3C//DTD SVG 1.1//EN" "http://www.w3.org/Graphics/SVG/1.1/DTD/svg11.dtd"><svg t="1735046888854" class="icon" viewBox="0 0 1024 1024" version="1.1" xmlns="http://www.w3.org/2000/svg" p-id="12570" xmlns:xlink="http://www.w3.org/1999/xlink" width="200" height="200"><path d="M475.108 394.568c11 2.53 22.47 3.87 34.24 3.87 11.77 0 23.24-1.34 34.24-3.87 67.47-15.53 117.77-75.95 117.77-148.14 0-83.95-68.05-152.01-152.01-152.01-83.95 0-152.01 68.06-152.01 152.01 0 72.19 50.311 132.61 117.77 148.14z" fill="#13227a" p-id="12571"></path><path d="M818.095 390.46m-120.01 0a120.01 120.01 0 1 0 240.02 0 120.01 120.01 0 1 0-240.02 0Z" fill="#1296db" p-id="12572"></path><path d="M565.93 445.066H457.955c-76.222 0-138.013 61.79-138.013 138.013v309.277c0 18.63 15.102 33.732 33.732 33.732H670.21c18.63 0 33.732-15.102 33.732-33.732V583.079c0.001-76.222-61.79-138.013-138.012-138.013z m-4.715 237.385h-0.07L512.581 731l-48.534-48.549h-0.085l0.01-0.075-0.115-0.115h0.13l21.496-162.024h-0.031l-9.935-40.173h74.142l-9.935 40.173h-0.031l21.498 162.039h0.128l-0.113 0.113 0.009 0.062z" fill="#13227a" p-id="12573"></path><path d="M846.969 538.988h-71.75c-10.49 0-20.66 1.39-30.32 4.01v384.04h166.03c28.82 0 52.18-23.36 52.18-52.18v-219.74c0-64.14-52-116.13-116.14-116.13z m18.389 213.34h-0.064l-44.364 44.35-44.336-44.35h-0.078l0.009-0.068-0.105-0.105h0.119l19.637-148.01h-0.028l-9.076-36.699h67.73l-9.076 36.699h-0.028l19.639 148.024h0.117l-0.103 0.103 0.007 0.056z" fill="#1296db" p-id="12574"></path><path d="M210.999 389.51m-120.01 0a120.01 120.01 0 1 0 240.02 0 120.01 120.01 0 1 0-240.02 0Z" fill="#1296db" p-id="12575"></path><path d="M65.985 654.168v219.74c0 28.82 23.36 52.18 52.18 52.18h166.03v-384.04c-9.66-2.62-19.83-4.01-30.32-4.01h-71.75c-64.14 0-116.14 51.99-116.14 116.13z m97.758 97.153l-0.103-0.103h0.117l19.639-148.024h-0.028l-9.076-36.699h67.73l-9.076 36.699h-0.028l19.637 148.01h0.119l-0.105 0.105 0.009 0.068h-0.078l-44.336 44.35-44.364-44.35h-0.064l0.007-0.056z" fill="#1296db" p-id="12576"></path></svg>