<?xml version="1.0" standalone="no"?><!DOCTYPE svg PUBLIC "-//W3C//DTD SVG 1.1//EN" "http://www.w3.org/Graphics/SVG/1.1/DTD/svg11.dtd"><svg t="1735046819790" class="icon" viewBox="0 0 1024 1024" version="1.1" xmlns="http://www.w3.org/2000/svg" p-id="8513" xmlns:xlink="http://www.w3.org/1999/xlink" width="200" height="200"><path d="M177.664 963.584c0 33.28-24.576 60.416-57.856 60.416H57.856C24.576 1024 0 996.864 0 963.584v-55.296h177.664v55.296zM0 366.592h177.664v481.792H0V366.592zM177.664 304.128L0 305.664V243.712c0-33.28 24.576-60.416 57.856-60.416h61.952c33.28 0 57.856 27.136 57.856 60.416v60.416z" fill="#20205B" p-id="8514"></path><path d="M481.792 963.584c0 33.28-27.136 60.416-60.416 60.416H296.96c-33.28 0-55.296-27.136-55.296-60.416v-54.784H481.28v54.784zM481.792 846.336l-239.616-0.512V184.832h239.616v661.504zM481.792 124.928L241.664 122.88V60.416C241.664 27.136 263.68 0 296.96 0h124.416c33.28 0 60.416 27.136 60.416 60.416v64.512z" fill="#CAA061" p-id="8515"></path><path d="M843.264 963.584c0 33.28-27.136 60.416-60.416 60.416h-182.272c-33.28 0-60.416-27.136-60.416-60.416V153.088c0-33.28 27.136-60.416 60.416-60.416h182.272c33.28 0 60.416 27.136 60.416 60.416v810.496z" fill="#20205B" p-id="8516"></path><path d="M1024 963.584c0 33.28-23.04 60.416-56.32 60.416h-9.216c-33.28 0-53.76-24.576-53.76-57.856v-119.296l119.808-2.56v119.296h-0.512zM1024 782.848l-119.808 2.56V497.152L1024 496.64v286.208zM1024 433.152h-119.808V314.368c0-33.28 20.48-62.976 53.76-62.976h9.216c33.28 0 56.32 27.136 56.32 60.416l0.512 121.344z" fill="#CAA061" p-id="8517"></path></svg>