<?xml version="1.0" standalone="no"?><!DOCTYPE svg PUBLIC "-//W3C//DTD SVG 1.1//EN" "http://www.w3.org/Graphics/SVG/1.1/DTD/svg11.dtd"><svg t="1735046844594" class="icon" viewBox="0 0 1024 1024" version="1.1" xmlns="http://www.w3.org/2000/svg" p-id="9852" xmlns:xlink="http://www.w3.org/1999/xlink" width="200" height="200"><path d="M640 1024H213.333333c-46.933333 0-85.333333-38.4-85.333333-85.333333V85.333333c0-46.933333 38.4-85.333333 85.333333-85.333333h597.333334c46.933333 0 85.333333 38.4 85.333333 85.333333v640l-256 298.666667z m-405.333333-341.333333h298.666666c12.8 0 21.333333-8.533333 21.333334-21.333334s-8.533333-21.333333-21.333334-21.333333h-298.666666c-12.8 0-21.333333 8.533333-21.333334 21.333333s8.533333 21.333333 21.333334 21.333334z m0-213.333334h469.333333c12.8 0 21.333333-8.533333 21.333333-21.333333s-8.533333-21.333333-21.333333-21.333333h-469.333333c-12.8 0-21.333333 8.533333-21.333334 21.333333s8.533333 21.333333 21.333334 21.333333z m554.666666-256h-554.666666c-12.8 0-21.333333 8.533333-21.333334 21.333334s8.533333 21.333333 21.333334 21.333333h558.933333c8.533333 0 17.066667-8.533333 17.066667-21.333333s-8.533333-21.333333-21.333334-21.333334z" fill="#1E62FC" p-id="9853"></path><path d="M640 1024l256-298.666667h-170.666667c-46.933333 0-85.333333 38.4-85.333333 85.333334v213.333333z" fill="#7BA3FF" p-id="9854"></path></svg>